<mxfile host="app.diagrams.net" modified="2024-01-18T07:24:07.349Z" agent="Mozilla/5.0 (Windows NT 10.0; Win64; x64) AppleWebKit/537.36 (KHTML, like Gecko) Chrome/120.0.0.0 Safari/537.36" etag="Tvvn864uQi2L0EBF3mRK" version="22.1.21" type="github">
  <diagram name="페이지-1" id="drHWNVwUpgOp4HJAVSJ5">
    <mxGraphModel dx="1434" dy="900" grid="1" gridSize="10" guides="1" tooltips="1" connect="1" arrows="1" fold="1" page="1" pageScale="1" pageWidth="827" pageHeight="1169" math="0" shadow="0">
      <root>
        <mxCell id="0" />
        <mxCell id="1" parent="0" />
        <mxCell id="xsA2ZwMQyf1BP1l2VPlH-25" value="" style="rounded=0;whiteSpace=wrap;html=1;" parent="1" vertex="1">
          <mxGeometry x="40" y="30" width="730" height="530" as="geometry" />
        </mxCell>
        <mxCell id="xsA2ZwMQyf1BP1l2VPlH-26" value="시작" style="strokeWidth=2;html=1;shape=mxgraph.flowchart.terminator;whiteSpace=wrap;" parent="1" vertex="1">
          <mxGeometry x="213" y="160" width="80" height="50" as="geometry" />
        </mxCell>
        <mxCell id="xsA2ZwMQyf1BP1l2VPlH-27" value="종료" style="strokeWidth=2;html=1;shape=mxgraph.flowchart.terminator;whiteSpace=wrap;" parent="1" vertex="1">
          <mxGeometry x="213" y="479" width="80" height="50" as="geometry" />
        </mxCell>
        <mxCell id="xsA2ZwMQyf1BP1l2VPlH-28" value="전압 인가&lt;br&gt;B+BATT, LATCH SEN, B+LDC = 13.8V" style="rounded=0;whiteSpace=wrap;html=1;align=left;" parent="1" vertex="1">
          <mxGeometry x="140" y="240" width="226" height="60" as="geometry" />
        </mxCell>
        <mxCell id="xsA2ZwMQyf1BP1l2VPlH-29" value="Trunk&amp;nbsp;Wake-up" style="rhombus;whiteSpace=wrap;html=1;" parent="1" vertex="1">
          <mxGeometry x="148" y="340" width="210" height="80" as="geometry" />
        </mxCell>
        <mxCell id="xsA2ZwMQyf1BP1l2VPlH-30" value="" style="endArrow=classic;html=1;rounded=0;exitX=0.5;exitY=1;exitDx=0;exitDy=0;entryX=0.5;entryY=0;entryDx=0;entryDy=0;" parent="1" source="xsA2ZwMQyf1BP1l2VPlH-28" target="xsA2ZwMQyf1BP1l2VPlH-29" edge="1">
          <mxGeometry width="50" height="50" relative="1" as="geometry">
            <mxPoint x="409" y="310" as="sourcePoint" />
            <mxPoint x="459" y="260" as="targetPoint" />
          </mxGeometry>
        </mxCell>
        <mxCell id="xsA2ZwMQyf1BP1l2VPlH-31" value="" style="endArrow=classic;html=1;rounded=0;exitX=0.5;exitY=1;exitDx=0;exitDy=0;exitPerimeter=0;entryX=0.5;entryY=0;entryDx=0;entryDy=0;" parent="1" source="xsA2ZwMQyf1BP1l2VPlH-26" target="xsA2ZwMQyf1BP1l2VPlH-28" edge="1">
          <mxGeometry width="50" height="50" relative="1" as="geometry">
            <mxPoint x="-21" y="260" as="sourcePoint" />
            <mxPoint x="29" y="210" as="targetPoint" />
          </mxGeometry>
        </mxCell>
        <mxCell id="xsA2ZwMQyf1BP1l2VPlH-32" value="" style="endArrow=classic;html=1;rounded=0;exitX=0.5;exitY=1;exitDx=0;exitDy=0;entryX=0.5;entryY=0;entryDx=0;entryDy=0;entryPerimeter=0;" parent="1" source="xsA2ZwMQyf1BP1l2VPlH-29" target="xsA2ZwMQyf1BP1l2VPlH-27" edge="1">
          <mxGeometry width="50" height="50" relative="1" as="geometry">
            <mxPoint x="-11" y="420" as="sourcePoint" />
            <mxPoint x="39" y="370" as="targetPoint" />
          </mxGeometry>
        </mxCell>
        <mxCell id="xsA2ZwMQyf1BP1l2VPlH-33" value="Trunk = 2.2v 이하" style="rounded=0;whiteSpace=wrap;html=1;align=left;" parent="1" vertex="1">
          <mxGeometry x="479" y="340" width="270" height="60" as="geometry" />
        </mxCell>
        <mxCell id="xsA2ZwMQyf1BP1l2VPlH-34" value="" style="endArrow=classic;html=1;rounded=0;exitX=1;exitY=0.5;exitDx=0;exitDy=0;entryX=-0.007;entryY=0.65;entryDx=0;entryDy=0;entryPerimeter=0;" parent="1" source="xsA2ZwMQyf1BP1l2VPlH-29" target="xsA2ZwMQyf1BP1l2VPlH-33" edge="1">
          <mxGeometry width="50" height="50" relative="1" as="geometry">
            <mxPoint x="489" y="310" as="sourcePoint" />
            <mxPoint x="539" y="260" as="targetPoint" />
          </mxGeometry>
        </mxCell>
        <mxCell id="xsA2ZwMQyf1BP1l2VPlH-35" value="" style="endArrow=classic;html=1;rounded=0;exitX=0.5;exitY=0;exitDx=0;exitDy=0;" parent="1" source="xsA2ZwMQyf1BP1l2VPlH-33" edge="1">
          <mxGeometry width="50" height="50" relative="1" as="geometry">
            <mxPoint x="499" y="280" as="sourcePoint" />
            <mxPoint x="259" y="320" as="targetPoint" />
            <Array as="points">
              <mxPoint x="614" y="320" />
            </Array>
          </mxGeometry>
        </mxCell>
        <mxCell id="xsA2ZwMQyf1BP1l2VPlH-36" value="Trunk Wake-up" style="rounded=0;whiteSpace=wrap;html=1;" parent="1" vertex="1">
          <mxGeometry x="70" y="20" width="140" height="30" as="geometry" />
        </mxCell>
        <mxCell id="xsA2ZwMQyf1BP1l2VPlH-37" value="" style="rounded=0;whiteSpace=wrap;html=1;" parent="1" vertex="1">
          <mxGeometry x="40" y="630" width="730" height="510" as="geometry" />
        </mxCell>
        <mxCell id="xsA2ZwMQyf1BP1l2VPlH-38" value="시작" style="strokeWidth=2;html=1;shape=mxgraph.flowchart.terminator;whiteSpace=wrap;" parent="1" vertex="1">
          <mxGeometry x="203" y="670" width="80" height="50" as="geometry" />
        </mxCell>
        <mxCell id="xsA2ZwMQyf1BP1l2VPlH-39" value="종료" style="strokeWidth=2;html=1;shape=mxgraph.flowchart.terminator;whiteSpace=wrap;" parent="1" vertex="1">
          <mxGeometry x="203" y="1059" width="80" height="50" as="geometry" />
        </mxCell>
        <mxCell id="xsA2ZwMQyf1BP1l2VPlH-40" value="전압 인가&lt;br&gt;B+BATT, LATCH SEN, B+LDC = 13.8V" style="rounded=0;whiteSpace=wrap;html=1;align=left;" parent="1" vertex="1">
          <mxGeometry x="130" y="750" width="226" height="60" as="geometry" />
        </mxCell>
        <mxCell id="xsA2ZwMQyf1BP1l2VPlH-41" value="Trunk&amp;nbsp;Off" style="rhombus;whiteSpace=wrap;html=1;" parent="1" vertex="1">
          <mxGeometry x="138" y="850" width="210" height="80" as="geometry" />
        </mxCell>
        <mxCell id="xsA2ZwMQyf1BP1l2VPlH-42" value="" style="endArrow=classic;html=1;rounded=0;exitX=0.5;exitY=1;exitDx=0;exitDy=0;entryX=0.5;entryY=0;entryDx=0;entryDy=0;" parent="1" source="xsA2ZwMQyf1BP1l2VPlH-40" target="xsA2ZwMQyf1BP1l2VPlH-41" edge="1">
          <mxGeometry width="50" height="50" relative="1" as="geometry">
            <mxPoint x="399" y="820" as="sourcePoint" />
            <mxPoint x="449" y="770" as="targetPoint" />
          </mxGeometry>
        </mxCell>
        <mxCell id="xsA2ZwMQyf1BP1l2VPlH-43" value="" style="endArrow=classic;html=1;rounded=0;exitX=0.5;exitY=1;exitDx=0;exitDy=0;exitPerimeter=0;entryX=0.5;entryY=0;entryDx=0;entryDy=0;" parent="1" source="xsA2ZwMQyf1BP1l2VPlH-38" target="xsA2ZwMQyf1BP1l2VPlH-40" edge="1">
          <mxGeometry width="50" height="50" relative="1" as="geometry">
            <mxPoint x="-31" y="770" as="sourcePoint" />
            <mxPoint x="19" y="720" as="targetPoint" />
          </mxGeometry>
        </mxCell>
        <mxCell id="xsA2ZwMQyf1BP1l2VPlH-44" value="" style="endArrow=classic;html=1;rounded=0;exitX=0.5;exitY=1;exitDx=0;exitDy=0;entryX=0.5;entryY=0;entryDx=0;entryDy=0;entryPerimeter=0;" parent="1" target="xsA2ZwMQyf1BP1l2VPlH-39" edge="1">
          <mxGeometry width="50" height="50" relative="1" as="geometry">
            <mxPoint x="243" y="1000" as="sourcePoint" />
            <mxPoint x="29" y="950" as="targetPoint" />
          </mxGeometry>
        </mxCell>
        <mxCell id="xsA2ZwMQyf1BP1l2VPlH-45" value="Trunk = 13.8v 이상" style="rounded=0;whiteSpace=wrap;html=1;align=left;" parent="1" vertex="1">
          <mxGeometry x="469" y="850" width="270" height="60" as="geometry" />
        </mxCell>
        <mxCell id="xsA2ZwMQyf1BP1l2VPlH-46" value="" style="endArrow=classic;html=1;rounded=0;exitX=1;exitY=0.5;exitDx=0;exitDy=0;entryX=-0.007;entryY=0.65;entryDx=0;entryDy=0;entryPerimeter=0;" parent="1" source="xsA2ZwMQyf1BP1l2VPlH-41" target="xsA2ZwMQyf1BP1l2VPlH-45" edge="1">
          <mxGeometry width="50" height="50" relative="1" as="geometry">
            <mxPoint x="479" y="820" as="sourcePoint" />
            <mxPoint x="529" y="770" as="targetPoint" />
          </mxGeometry>
        </mxCell>
        <mxCell id="xsA2ZwMQyf1BP1l2VPlH-47" value="" style="endArrow=classic;html=1;rounded=0;exitX=0.5;exitY=0;exitDx=0;exitDy=0;" parent="1" source="xsA2ZwMQyf1BP1l2VPlH-45" edge="1">
          <mxGeometry width="50" height="50" relative="1" as="geometry">
            <mxPoint x="489" y="790" as="sourcePoint" />
            <mxPoint x="249" y="830" as="targetPoint" />
            <Array as="points">
              <mxPoint x="604" y="830" />
            </Array>
          </mxGeometry>
        </mxCell>
        <mxCell id="xsA2ZwMQyf1BP1l2VPlH-48" value="Trunk Off" style="rounded=0;whiteSpace=wrap;html=1;" parent="1" vertex="1">
          <mxGeometry x="70" y="620" width="140" height="30" as="geometry" />
        </mxCell>
        <mxCell id="xsA2ZwMQyf1BP1l2VPlH-49" value="sleep" style="rounded=0;whiteSpace=wrap;html=1;align=center;" parent="1" vertex="1">
          <mxGeometry x="200" y="970" width="80" height="30" as="geometry" />
        </mxCell>
        <mxCell id="xsA2ZwMQyf1BP1l2VPlH-50" value="" style="endArrow=classic;html=1;rounded=0;exitX=0.5;exitY=1;exitDx=0;exitDy=0;entryX=0.533;entryY=0.022;entryDx=0;entryDy=0;entryPerimeter=0;" parent="1" source="xsA2ZwMQyf1BP1l2VPlH-41" target="xsA2ZwMQyf1BP1l2VPlH-49" edge="1">
          <mxGeometry width="50" height="50" relative="1" as="geometry">
            <mxPoint x="40" y="950" as="sourcePoint" />
            <mxPoint x="90" y="900" as="targetPoint" />
          </mxGeometry>
        </mxCell>
      </root>
    </mxGraphModel>
  </diagram>
</mxfile>
